<svg xmlns="http://www.w3.org/2000/svg" aria-hidden="true" style="position:absolute;width:0;height:0;overflow:hidden">
<defs>
<symbol id="icon-logo" viewBox="0 0 32 32">
<path 
d="M28.129 18.563 21.381 3.106l-1.471-1.02-1.725-.549-2.334-.628-2.74 1.177-1.826 1.02 6.9 15.457h9.944zM3.913 13.395l6.748 15.493 1.471 1.022 1.725.551 2.334.629 2.74-1.18 1.826-1.022-6.9-15.493H3.913z" style=""/>
<path fill="#fff" 
d="M10.924 3.309.448 18.451l10.476.112 7.573-15.255c.532-1.561 2.195-.65 2.96 0-3.271-5.993-8.385-2.497-10.533 0zM21.076 28.691l10.476-15.142-10.476-.112-7.573 15.255c-.532 1.561-2.195.65-2.961 0 3.271 5.993 8.385 2.497 10.533 0z" style="fill:var(--color2, #fff)"/>
</symbol>
</defs>
</svg>